<?xml version="1.0" encoding="UTF-8"?>
<!DOCTYPE svg PUBLIC "-//W3C//DTD SVG 1.1//EN" "http://www.w3.org/Graphics/SVG/1.1/DTD/svg11.dtd">
<!-- Creator: CorelDRAW 2020 (64-Bit Versión de evaluación) -->
<svg xmlns="http://www.w3.org/2000/svg" xml:space="preserve" width="270.933mm" height="203.2mm" version="1.1" style="shape-rendering:geometricPrecision; text-rendering:geometricPrecision; image-rendering:optimizeQuality; fill-rule:evenodd; clip-rule:evenodd"
viewBox="0 0 27093.32 20320"
 xmlns:xlink="http://www.w3.org/1999/xlink"
 xmlns:xodm="http://www.corel.com/coreldraw/odm/2003">
 <defs>
  <style type="text/css">
   <![CDATA[
    .str0 {stroke:black;stroke-width:238.12;stroke-miterlimit:54.5705}
    .str2 {stroke:black;stroke-width:20;stroke-miterlimit:22.9256}
    .str1 {stroke:white;stroke-width:20;stroke-miterlimit:22.9256}
    .fil0 {fill:none}
    .fil75 {fill:#DA3971}
    .fil76 {fill:red}
    .fil77 {fill:#FF6600}
    .fil74 {fill:white}
    .fil72 {fill:#DA3971;fill-rule:nonzero}
    .fil73 {fill:black;fill-rule:nonzero}
    .fil9 {fill:url(#id0)}
    .fil67 {fill:url(#id1)}
    .fil8 {fill:url(#id2)}
    .fil7 {fill:url(#id3)}
    .fil36 {fill:url(#id4)}
    .fil56 {fill:url(#id5)}
    .fil64 {fill:url(#id6)}
    .fil52 {fill:url(#id7)}
    .fil12 {fill:url(#id8)}
    .fil38 {fill:url(#id9)}
    .fil48 {fill:url(#id10)}
    .fil66 {fill:url(#id11)}
    .fil2 {fill:url(#id12)}
    .fil61 {fill:url(#id13)}
    .fil13 {fill:url(#id14)}
    .fil62 {fill:url(#id15)}
    .fil37 {fill:url(#id16)}
    .fil50 {fill:url(#id17)}
    .fil10 {fill:url(#id18)}
    .fil21 {fill:url(#id19)}
    .fil35 {fill:url(#id20)}
    .fil22 {fill:url(#id21)}
    .fil65 {fill:url(#id22)}
    .fil51 {fill:url(#id23)}
    .fil60 {fill:url(#id24)}
    .fil69 {fill:url(#id25)}
    .fil41 {fill:url(#id26)}
    .fil15 {fill:url(#id27)}
    .fil33 {fill:url(#id28)}
    .fil42 {fill:url(#id29)}
    .fil20 {fill:url(#id30)}
    .fil23 {fill:url(#id31)}
    .fil34 {fill:url(#id32)}
    .fil32 {fill:url(#id33)}
    .fil71 {fill:url(#id34)}
    .fil1 {fill:url(#id35)}
    .fil70 {fill:url(#id36)}
    .fil5 {fill:url(#id37)}
    .fil19 {fill:url(#id38)}
    .fil24 {fill:url(#id39)}
    .fil11 {fill:url(#id40)}
    .fil53 {fill:url(#id41)}
    .fil16 {fill:url(#id42)}
    .fil57 {fill:url(#id43)}
    .fil43 {fill:url(#id44)}
    .fil18 {fill:url(#id45)}
    .fil47 {fill:url(#id46)}
    .fil28 {fill:url(#id47)}
    .fil55 {fill:url(#id48)}
    .fil59 {fill:url(#id49)}
    .fil49 {fill:url(#id50)}
    .fil3 {fill:url(#id51)}
    .fil63 {fill:url(#id52)}
    .fil45 {fill:url(#id53)}
    .fil58 {fill:url(#id54)}
    .fil31 {fill:url(#id55)}
    .fil29 {fill:url(#id56)}
    .fil46 {fill:url(#id57)}
    .fil39 {fill:url(#id58)}
    .fil17 {fill:url(#id59)}
    .fil40 {fill:url(#id60)}
    .fil26 {fill:url(#id61)}
    .fil44 {fill:url(#id62)}
    .fil6 {fill:url(#id63)}
    .fil27 {fill:url(#id64)}
    .fil54 {fill:url(#id65)}
    .fil30 {fill:url(#id66)}
    .fil68 {fill:url(#id67)}
    .fil14 {fill:url(#id68)}
    .fil25 {fill:url(#id69)}
    .fil4 {fill:url(#id70)}
   ]]>
  </style>
  <linearGradient id="id0" gradientUnits="userSpaceOnUse" x1="9082.76" y1="10929.21" x2="9604.69" y2="10929.21">
   <stop offset="0" style="stop-opacity:1; stop-color:#EBDFE5"/>
   <stop offset="1" style="stop-opacity:1; stop-color:#C4BABF"/>
  </linearGradient>
  <linearGradient id="id1" gradientUnits="userSpaceOnUse" xlink:href="#id0" x1="18755.24" y1="10575.29" x2="18893.93" y2="10339.38">
  </linearGradient>
  <linearGradient id="id2" gradientUnits="userSpaceOnUse" xlink:href="#id0" x1="9215.72" y1="10365.84" x2="9215.72" y2="10016.75">
  </linearGradient>
  <linearGradient id="id3" gradientUnits="userSpaceOnUse" xlink:href="#id0" x1="7898.42" y1="11408.31" x2="9130.16" y2="10646.25">
  </linearGradient>
  <linearGradient id="id4" gradientUnits="userSpaceOnUse" xlink:href="#id0" x1="14362.7" y1="10365.84" x2="14362.7" y2="10016.75">
  </linearGradient>
  <linearGradient id="id5" gradientUnits="userSpaceOnUse" xlink:href="#id0" x1="18385.25" y1="11376.29" x2="18557.53" y2="10938.39">
  </linearGradient>
  <linearGradient id="id6" gradientUnits="userSpaceOnUse" xlink:href="#id0" x1="17791.86" y1="10365.84" x2="17791.86" y2="10016.75">
  </linearGradient>
  <linearGradient id="id7" gradientUnits="userSpaceOnUse" xlink:href="#id0" x1="16219.75" y1="11876.14" x2="16187.09" y2="11429.19">
  </linearGradient>
  <linearGradient id="id8" gradientUnits="userSpaceOnUse" xlink:href="#id0" x1="10729.66" y1="10365.84" x2="10729.66" y2="10016.75">
  </linearGradient>
  <linearGradient id="id9" gradientUnits="userSpaceOnUse" xlink:href="#id0" x1="15792.45" y1="10504.16" x2="15545.35" y2="10086.16">
  </linearGradient>
  <linearGradient id="id10" gradientUnits="userSpaceOnUse" xlink:href="#id0" x1="15415.14" y1="11022.34" x2="15626.98" y2="11022.98">
  </linearGradient>
  <linearGradient id="id11" gradientUnits="userSpaceOnUse" xlink:href="#id0" x1="18560.15" y1="10486.36" x2="18709.79" y2="10067.88">
  </linearGradient>
  <linearGradient id="id12" gradientUnits="userSpaceOnUse" xlink:href="#id0" x1="7123.19" y1="11426.75" x2="7895.17" y2="11734.78">
  </linearGradient>
  <linearGradient id="id13" gradientUnits="userSpaceOnUse" xlink:href="#id0" x1="18337.51" y1="11101.25" x2="18283.72" y2="10682.36">
  </linearGradient>
  <linearGradient id="id14" gradientUnits="userSpaceOnUse" xlink:href="#id0" x1="10635.54" y1="11027.28" x2="11079.8" y2="11027.28">
  </linearGradient>
  <linearGradient id="id15" gradientUnits="userSpaceOnUse" xlink:href="#id0" x1="18629.32" y1="10947.6" x2="18453.45" y2="10604.15">
  </linearGradient>
  <linearGradient id="id16" gradientUnits="userSpaceOnUse" xlink:href="#id0" x1="15608.24" y1="10628.47" x2="15311.04" y2="10295.49">
  </linearGradient>
  <linearGradient id="id17" gradientUnits="userSpaceOnUse" xlink:href="#id0" x1="15551.75" y1="11675.2" x2="15845" y2="11276.06">
  </linearGradient>
  <linearGradient id="id18" gradientUnits="userSpaceOnUse" xlink:href="#id0" x1="9794.32" y1="11841.66" x2="9794.32" y2="11418.77">
  </linearGradient>
  <linearGradient id="id19" gradientUnits="userSpaceOnUse" xlink:href="#id0" x1="12252.3" y1="10980.86" x2="12560.7" y2="10543.72">
  </linearGradient>
  <linearGradient id="id20" gradientUnits="userSpaceOnUse" xlink:href="#id0" x1="15014.07" y1="10289.37" x2="15239.44" y2="10289.37">
  </linearGradient>
  <linearGradient id="id21" gradientUnits="userSpaceOnUse" xlink:href="#id0" x1="12594.69" y1="11068.34" x2="12744.72" y2="10639.49">
  </linearGradient>
  <linearGradient id="id22" gradientUnits="userSpaceOnUse" xlink:href="#id0" x1="18345.71" y1="10386.6" x2="18374.64" y2="10017.39">
  </linearGradient>
  <linearGradient id="id23" gradientUnits="userSpaceOnUse" xlink:href="#id0" x1="15843.09" y1="11852.73" x2="16006.55" y2="11377.06">
  </linearGradient>
  <linearGradient id="id24" gradientUnits="userSpaceOnUse" xlink:href="#id0" x1="17895.57" y1="11103.75" x2="17895.57" y2="10717.73">
  </linearGradient>
  <linearGradient id="id25" gradientUnits="userSpaceOnUse" xlink:href="#id0" x1="19973.83" y1="10365.84" x2="19973.83" y2="10016.75">
  </linearGradient>
  <linearGradient id="id26" gradientUnits="userSpaceOnUse" xlink:href="#id0" x1="16409.55" y1="10433.94" x2="16564.58" y2="10019.34">
  </linearGradient>
  <linearGradient id="id27" gradientUnits="userSpaceOnUse" xlink:href="#id0" x1="12008.11" y1="11524.74" x2="12458.28" y2="11279.85">
  </linearGradient>
  <linearGradient id="id28" gradientUnits="userSpaceOnUse" xlink:href="#id0" x1="13202.6" y1="10626.72" x2="13539.6" y2="10543.17">
  </linearGradient>
  <linearGradient id="id29" gradientUnits="userSpaceOnUse" xlink:href="#id0" x1="16620.08" y1="10555.94" x2="16859.72" y2="10159.68">
  </linearGradient>
  <linearGradient id="id30" gradientUnits="userSpaceOnUse" xlink:href="#id0" x1="12069.66" y1="10551.14" x2="12496.45" y2="10616.99">
  </linearGradient>
  <linearGradient id="id31" gradientUnits="userSpaceOnUse" xlink:href="#id0" x1="12863.13" y1="11143.5" x2="13044.37" y2="10699.99">
  </linearGradient>
  <linearGradient id="id32" gradientUnits="userSpaceOnUse" xlink:href="#id0" x1="14378.03" y1="11120.43" x2="14635.19" y2="11120.43">
  </linearGradient>
  <linearGradient id="id33" gradientUnits="userSpaceOnUse" xlink:href="#id0" x1="13089.85" y1="10565.07" x2="13482.12" y2="10272.04">
  </linearGradient>
  <linearGradient id="id34" gradientUnits="userSpaceOnUse" xlink:href="#id0" x1="20124.45" y1="11841.66" x2="20124.45" y2="11418.77">
  </linearGradient>
  <linearGradient id="id35" gradientUnits="userSpaceOnUse" xlink:href="#id0" x1="8000.76" y1="10365.84" x2="8000.76" y2="10016.75">
  </linearGradient>
  <linearGradient id="id36" gradientUnits="userSpaceOnUse" xlink:href="#id0" x1="20065.17" y1="11075.73" x2="20065.17" y2="10691.12">
  </linearGradient>
  <linearGradient id="id37" gradientUnits="userSpaceOnUse" xlink:href="#id0" x1="7612.43" y1="10574.24" x2="8196.93" y2="10716.24">
  </linearGradient>
  <linearGradient id="id38" gradientUnits="userSpaceOnUse" xlink:href="#id0" x1="13267.69" y1="11680.84" x2="12995.94" y2="11389.23">
  </linearGradient>
  <linearGradient id="id39" gradientUnits="userSpaceOnUse" xlink:href="#id0" x1="13056.83" y1="11253.3" x2="13382.82" y2="10815.31">
  </linearGradient>
  <linearGradient id="id40" gradientUnits="userSpaceOnUse" xlink:href="#id0" x1="10031.42" y1="11728.29" x2="10505.89" y2="11728.29">
  </linearGradient>
  <linearGradient id="id41" gradientUnits="userSpaceOnUse" xlink:href="#id0" x1="16576.42" y1="11813.17" x2="16371.36" y2="11344.69">
  </linearGradient>
  <linearGradient id="id42" gradientUnits="userSpaceOnUse" xlink:href="#id0" x1="12267.66" y1="11817.63" x2="12562.43" y2="11342.83">
  </linearGradient>
  <linearGradient id="id43" gradientUnits="userSpaceOnUse" xlink:href="#id0" x1="18582.52" y1="11471.51" x2="18719" y2="11141.26">
  </linearGradient>
  <linearGradient id="id44" gradientUnits="userSpaceOnUse" xlink:href="#id0" x1="16802.22" y1="10700.89" x2="17046.47" y2="10416.35">
  </linearGradient>
  <linearGradient id="id45" gradientUnits="userSpaceOnUse" xlink:href="#id0" x1="13092.57" y1="11843.9" x2="12853.32" y2="11360.98">
  </linearGradient>
  <linearGradient id="id46" gradientUnits="userSpaceOnUse" xlink:href="#id0" x1="15425.7" y1="10709" x2="15689.28" y2="10853.91">
  </linearGradient>
  <linearGradient id="id47" gradientUnits="userSpaceOnUse" xlink:href="#id0" x1="12425.03" y1="10475.45" x2="12102.22" y2="10061.15">
  </linearGradient>
  <linearGradient id="id48" gradientUnits="userSpaceOnUse" xlink:href="#id0" x1="17586.9" y1="10647.86" x2="17683.64" y2="10647.86">
  </linearGradient>
  <linearGradient id="id49" gradientUnits="userSpaceOnUse" xlink:href="#id0" x1="17586.9" y1="11468.73" x2="17683.64" y2="11468.73">
  </linearGradient>
  <linearGradient id="id50" gradientUnits="userSpaceOnUse" xlink:href="#id0" x1="15427.3" y1="11349.9" x2="15699.02" y2="11171.21">
  </linearGradient>
  <linearGradient id="id51" gradientUnits="userSpaceOnUse" xlink:href="#id0" x1="7999.33" y1="11351.28" x2="7999.33" y2="10952.88">
  </linearGradient>
  <linearGradient id="id52" gradientUnits="userSpaceOnUse" xlink:href="#id0" x1="18653.07" y1="10686.23" x2="18605.25" y2="10644.68">
  </linearGradient>
  <linearGradient id="id53" gradientUnits="userSpaceOnUse" xlink:href="#id0" x1="16985.58" y1="11033.6" x2="17123.33" y2="11050.56">
  </linearGradient>
  <linearGradient id="id54" gradientUnits="userSpaceOnUse" xlink:href="#id0" x1="18722.49" y1="11837.1" x2="19025.05" y2="11373.21">
  </linearGradient>
  <linearGradient id="id55" gradientUnits="userSpaceOnUse" xlink:href="#id0" x1="12947.42" y1="10465.69" x2="13226.95" y2="10051">
  </linearGradient>
  <linearGradient id="id56" gradientUnits="userSpaceOnUse" xlink:href="#id0" x1="12578.62" y1="10373.5" x2="12483.84" y2="9992.24">
  </linearGradient>
  <linearGradient id="id57" gradientUnits="userSpaceOnUse" xlink:href="#id0" x1="16952.55" y1="11174.59" x2="17110.61" y2="11286.06">
  </linearGradient>
  <linearGradient id="id58" gradientUnits="userSpaceOnUse" xlink:href="#id0" x1="15980.06" y1="10391.21" x2="15877.73" y2="9998.93">
  </linearGradient>
  <linearGradient id="id59" gradientUnits="userSpaceOnUse" xlink:href="#id0" x1="12669.5" y1="11869.34" x2="12704.87" y2="11427.16">
  </linearGradient>
  <linearGradient id="id60" gradientUnits="userSpaceOnUse" xlink:href="#id0" x1="16192.75" y1="10353.2" x2="16214.12" y2="9990.34">
  </linearGradient>
  <linearGradient id="id61" gradientUnits="userSpaceOnUse" xlink:href="#id0" x1="13221.12" y1="11383.8" x2="13591.09" y2="11529.2">
  </linearGradient>
  <linearGradient id="id62" gradientUnits="userSpaceOnUse" xlink:href="#id0" x1="16935.53" y1="10861.12" x2="17117.7" y2="10736.24">
  </linearGradient>
  <linearGradient id="id63" gradientUnits="userSpaceOnUse" xlink:href="#id0" x1="7409.07" y1="10767.69" x2="8165.86" y2="11070.25">
  </linearGradient>
  <linearGradient id="id64" gradientUnits="userSpaceOnUse" xlink:href="#id0" x1="13219.95" y1="11475.96" x2="13507.55" y2="11708.43">
  </linearGradient>
  <linearGradient id="id65" gradientUnits="userSpaceOnUse" xlink:href="#id0" x1="16806.18" y1="11569.09" x2="16545.47" y2="11238.03">
  </linearGradient>
  <linearGradient id="id66" gradientUnits="userSpaceOnUse" xlink:href="#id0" x1="12775.64" y1="10369.84" x2="12858.37" y2="9991.79">
  </linearGradient>
  <linearGradient id="id67" gradientUnits="userSpaceOnUse" xlink:href="#id0" x1="18867.47" y1="10630.85" x2="18904.86" y2="10620.02">
  </linearGradient>
  <linearGradient id="id68" gradientUnits="userSpaceOnUse" xlink:href="#id0" x1="12086.21" y1="11499.89" x2="12030.97" y2="11077.96">
  </linearGradient>
  <linearGradient id="id69" gradientUnits="userSpaceOnUse" xlink:href="#id0" x1="13195.8" y1="11331.11" x2="13581.19" y2="11109.75">
  </linearGradient>
  <linearGradient id="id70" gradientUnits="userSpaceOnUse" xlink:href="#id0" x1="7631" y1="10409.45" x2="8280.7" y2="10572.29">
  </linearGradient>
 </defs>
 <g id="Capa_x0020_1">
  <metadata id="CorelCorpID_0Corel-Layer"/>
  <path class="fil0 str0" d="M2631.99 7218.74l6749.91 0 0 0 -6749.91 0 0 6411.14 6749.91 0 0 0 -6749.91 0 0 -6411.14zm15484.84 0l5628.83 0 0 6411.14 -5628.83 0 0 0 5628.83 0 0 -6411.14 -5628.83 0 0 0z"/>
  <g id="_1718080477504">
   <polygon class="fil1" points="7568.59,10365.84 8166.22,10016.75 8432.93,10016.75 7849.34,10365.84 "/>
   <polygon class="fil0" points="7568.59,10365.84 8166.22,10016.75 8432.93,10016.75 7849.34,10365.84 "/>
   <polygon class="fil2" points="7308.53,11531.08 7919.15,11123.72 7720.3,11605.1 7099.21,12037.81 "/>
   <polygon class="fil0" points="7308.53,11531.08 7919.15,11123.72 7720.3,11605.1 7099.21,12037.81 "/>
   <polygon class="fil3" points="7383.53,11351.28 7990.42,10952.88 8615.13,10952.88 8041.12,11351.28 "/>
   <polygon class="fil0" points="7383.53,11351.28 7990.42,10952.88 8615.13,10952.88 8041.12,11351.28 "/>
   <polygon class="fil4" points="7701.55,10538.65 8292.52,10180.91 8287.72,10200.3 8282.69,10219.63 8277.47,10238.94 8272.06,10258.19 8266.42,10277.41 8260.63,10296.64 8254.61,10315.75 8248.37,10334.89 8241.98,10353.95 8235.36,10373.01 8228.51,10392.04 8221.48,10411.04 8214.25,10429.96 7619.17,10800.83 7626.78,10780.89 7634.16,10760.9 7641.36,10740.87 7648.33,10720.82 7655.08,10700.74 7661.63,10680.61 7667.97,10660.48 7674.08,10640.26 7680,10620.02 7685.7,10599.74 7691.21,10579.42 7696.49,10559.06 "/>
   <polygon class="fil5" points="7619.17,10800.83 8214.25,10429.96 8206.87,10448.88 8199.23,10467.8 8191.4,10486.67 7595.11,10860.52 7603.35,10840.66 7611.37,10820.75 "/>
   <polygon class="fil6" points="7595.11,10860.52 8191.4,10486.67 7990.42,10952.88 7383.53,11351.28 "/>
   <polygon class="fil0" points="7701.55,10538.65 8292.52,10180.91 8287.72,10200.3 8282.69,10219.63 8277.47,10238.94 8272.06,10258.19 8266.42,10277.41 8260.63,10296.64 8254.61,10315.75 8248.37,10334.89 8241.98,10353.95 8235.36,10373.01 8228.51,10392.04 8221.48,10411.04 8214.25,10429.96 8206.87,10448.88 8199.23,10467.8 8191.4,10486.67 7990.42,10952.88 7383.53,11351.28 7595.11,10860.52 7603.35,10840.66 7611.37,10820.75 7619.17,10800.83 7626.78,10780.89 7634.16,10760.9 7641.36,10740.87 7648.33,10720.82 7655.08,10700.74 7661.63,10680.61 7667.97,10660.48 7674.08,10640.26 7680,10620.02 7685.7,10599.74 7691.21,10579.42 7696.49,10559.06 "/>
   <polygon class="fil7" points="7849.34,10365.84 8432.93,10016.75 9179.24,11605.1 8634.93,12037.81 "/>
   <polygon class="fil0" points="7849.34,10365.84 8432.93,10016.75 9179.24,11605.1 8634.93,12037.81 "/>
   <polygon class="fil8" points="8826.74,10365.84 9361.47,10016.75 9604.69,10016.75 9082.76,10365.84 "/>
   <polygon class="fil0" points="8826.74,10365.84 9361.47,10016.75 9604.69,10016.75 9082.76,10365.84 "/>
   <polygon class="fil9" points="9082.76,10365.84 9604.69,10016.75 9604.69,11418.77 9082.76,11841.66 "/>
   <polygon class="fil0" points="9082.76,10365.84 9604.69,10016.75 9604.69,11418.77 9082.76,11841.66 "/>
   <polygon class="fil10" points="9082.76,11841.66 9604.69,11418.77 10505.89,11418.77 10031.42,11841.66 "/>
   <polygon class="fil0" points="9082.76,11841.66 9604.69,11418.77 10505.89,11418.77 10031.42,11841.66 "/>
   <polygon class="fil11" points="10031.42,11841.66 10505.89,11418.77 10505.89,11605.1 10031.42,12037.81 "/>
   <polygon class="fil0" points="10031.42,11841.66 10505.89,11418.77 10505.89,11605.1 10031.42,12037.81 "/>
   <polygon class="fil12" points="10379.52,10365.84 10836.61,10016.75 11079.8,10016.75 10635.54,10365.84 "/>
   <polygon class="fil0" points="10379.52,10365.84 10836.61,10016.75 11079.8,10016.75 10635.54,10365.84 "/>
   <polygon class="fil13" points="10635.54,10365.84 11079.8,10016.75 11079.8,11605.1 10635.54,12037.81 "/>
   <polygon class="fil0" points="10635.54,10365.84 11079.8,10016.75 11079.8,11605.1 10635.54,12037.81 "/>
   <polygon class="fil14" points="11750.38,11500.74 12138.91,11094.89 12366.79,11077.11 11990.23,11482.04 "/>
   <polygon class="fil0" points="11750.38,11500.74 12138.91,11094.89 12366.79,11077.11 11990.23,11482.04 "/>
   <polygon class="fil15" points="11990.23,11482.04 12366.79,11077.11 12371.47,11106.4 12377.52,11134.31 12384.9,11160.92 12393.65,11186.13 12403.78,11210.07 12415.24,11232.63 12428.1,11253.87 12442.32,11273.81 12458.21,11292.48 12476.16,11310.3 12105.36,11727.48 12086.49,11708.75 12069.74,11689.09 12054.78,11668.1 12041.25,11645.73 12029.19,11621.98 12018.53,11596.8 12009.3,11570.24 12001.53,11542.25 11995.16,11512.85 "/>
   <polygon class="fil16" points="12105.36,11727.48 12476.16,11310.3 12496.15,11327.15 12518.14,11343.15 12542.24,11358.23 12568.31,11372.41 12596.48,11385.7 12626.66,11398.06 12658.36,11409.12 12691.02,11418.72 12724.73,11426.82 12367.01,11850.15 12331.55,11841.6 12297.14,11831.51 12263.78,11819.87 12232.02,11806.85 12202.38,11792.87 12174.91,11777.95 12149.57,11762.06 12126.4,11745.24 "/>
   <polygon class="fil17" points="12367.01,11850.15 12724.73,11426.82 12759.39,11433.5 12795.04,11438.68 12831.68,11442.38 12869.3,11444.64 12907.85,11445.39 12942.04,11444.83 12975.24,11443.15 13007.35,11440.37 12664.54,11864.41 12630.7,11867.34 12595.78,11869.1 12559.78,11869.68 12519.2,11868.91 12479.6,11866.54 12441.05,11862.65 12403.52,11857.19 "/>
   <polygon class="fil18" points="12664.54,11864.41 13007.35,11440.37 13038.49,11436.45 13068.57,11431.4 13097.66,11425.25 13125.73,11417.94 13152.79,11409.5 13178.48,11400.07 13202.48,11389.84 13224.76,11378.72 13245.32,11366.81 13264.2,11354.07 13281.36,11340.47 12952.96,11759.25 12934.88,11773.56 12915.01,11786.97 12893.37,11799.52 12869.91,11811.21 12844.67,11822 12817.61,11831.92 12789.12,11840.8 12759.58,11848.5 12728.96,11854.98 12697.29,11860.28 "/>
   <polygon class="fil19" points="12952.96,11759.25 13281.36,11340.47 13296.89,11326.05 13310.67,11310.82 12983.8,11728.03 12969.28,11744.08 "/>
   <polygon class="fil0" points="11990.23,11482.04 12366.79,11077.11 12371.47,11106.4 12377.52,11134.31 12384.9,11160.92 12393.65,11186.13 12403.78,11210.07 12415.24,11232.63 12428.1,11253.87 12442.32,11273.81 12458.21,11292.48 12476.16,11310.3 12496.15,11327.15 12518.14,11343.15 12542.24,11358.23 12568.31,11372.41 12596.48,11385.7 12626.66,11398.06 12658.36,11409.12 12691.02,11418.72 12724.73,11426.82 12759.39,11433.5 12795.04,11438.68 12831.68,11442.38 12869.3,11444.64 12907.85,11445.39 12942.04,11444.83 12975.24,11443.15 13007.35,11440.37 13038.49,11436.45 13068.57,11431.4 13097.66,11425.25 13125.73,11417.94 13152.79,11409.5 13178.48,11400.07 13202.48,11389.84 13224.76,11378.72 13245.32,11366.81 13264.2,11354.07 13281.36,11340.47 13296.89,11326.05 13310.67,11310.82 12983.8,11728.03 12969.28,11744.08 12952.96,11759.25 12934.88,11773.56 12915.01,11786.97 12893.37,11799.52 12869.91,11811.21 12844.67,11822 12817.61,11831.92 12789.12,11840.8 12759.58,11848.5 12728.96,11854.98 12697.29,11860.28 12664.54,11864.41 12630.7,11867.34 12595.78,11869.1 12559.78,11869.68 12519.2,11868.91 12479.6,11866.54 12441.05,11862.65 12403.52,11857.19 12367.01,11850.15 12331.55,11841.6 12297.14,11831.51 12263.78,11819.87 12232.02,11806.85 12202.38,11792.87 12174.91,11777.95 12149.57,11762.06 12126.4,11745.24 12105.36,11727.48 12086.49,11708.75 12069.74,11689.09 12054.78,11668.1 12041.25,11645.73 12029.19,11621.98 12018.53,11596.8 12009.3,11570.24 12001.53,11542.25 11995.16,11512.85 "/>
   <polygon class="fil20" points="12128.09,10646.19 12497.74,10283.07 12480.43,10302.79 12466.23,10323.42 12455.22,10344.96 12447.32,10367.38 12442.58,10390.69 12441.02,10414.93 12442.13,10435.81 12445.47,10455.75 12451.08,10474.78 12458.88,10492.84 12468.93,10510 12097.75,10885.06 12087.19,10867.03 12078.97,10848 12073.08,10827.97 12069.55,10806.98 12068.37,10785 12070.03,10759.49 12075.03,10734.94 12083.33,10711.33 12094.92,10688.66 12109.85,10666.96 "/>
   <polygon class="fil21" points="12097.75,10885.06 12468.93,10510 12481.16,10526.22 12495.64,10541.5 12512.29,10555.81 12521.96,10562.7 12533.39,10569.6 12546.57,10576.55 12561.53,10583.53 12578.18,10590.53 12596.64,10597.57 12616.85,10604.6 12638.82,10611.69 12662.53,10618.78 12687.99,10625.89 12715.24,10633.03 12357.05,11014.58 12328.37,11007.08 12301.54,10999.58 12276.58,10992.1 12253.47,10984.66 12232.18,10977.24 12212.76,10969.85 12195.22,10962.48 12179.5,10955.12 12165.62,10947.81 12153.59,10940.56 12143.4,10933.3 12125.86,10918.22 12110.65,10902.14 "/>
   <polygon class="fil22" points="12357.05,11014.58 12715.24,10633.03 12744.27,10640.18 12775.05,10647.38 12807.58,10654.55 12841.9,10661.75 12877.96,10668.94 12914.22,10676.17 12949.01,10683.26 12982.37,10690.24 12638.21,11074.79 12603.1,11067.45 12566.5,11059.98 12528.33,11052.39 12490.36,11044.81 12454.23,11037.22 12419.98,11029.67 12387.61,11022.11 "/>
   <polygon class="fil23" points="12638.21,11074.79 12982.37,10690.24 13014.23,10697.1 13044.69,10703.83 13073.66,10710.45 13101.19,10716.96 13127.29,10723.36 13151.93,10729.62 13175.1,10735.74 13196.84,10741.78 13217.15,10747.71 13235.96,10753.51 13253.38,10759.21 13269.29,10764.76 12940.25,11153.25 12923.48,11147.41 12905.18,11141.4 12885.35,11135.3 12863.99,11129.07 12841.1,11122.7 12816.72,11116.24 12790.78,11109.65 12763.31,11102.92 12734.31,11096.08 12703.81,11089.1 12671.76,11082.01 "/>
   <polygon class="fil24" points="12940.25,11153.25 13269.29,10764.76 13283.77,10770.25 13322.35,10786.74 13358.35,10804.23 13391.75,10822.81 13422.59,10842.42 13450.79,10863.16 13476.42,10884.95 13499.4,10907.82 13182.46,11303.84 13158.27,11279.77 13131.3,11256.82 13101.61,11235 13069.14,11214.35 13034,11194.79 12996.09,11176.37 12955.5,11159.02 "/>
   <polygon class="fil25" points="13182.46,11303.84 13499.4,10907.82 13519.74,10931.84 13537.59,10956.69 13553.03,10982.5 13566.11,11009.23 13576.78,11036.92 13585.05,11065.55 13590.97,11095.09 13594.54,11125.56 13282.6,11533.04 13278.87,11500.96 13272.63,11469.85 13263.91,11439.73 13252.68,11410.58 13238.92,11382.45 13222.66,11355.28 13203.88,11329.11 "/>
   <polygon class="fil26" points="13282.6,11533.04 13594.54,11125.56 13595.72,11156.98 13594.41,11188.47 13590.5,11219.48 13583.97,11249.98 13574.84,11279.96 13563.12,11309.52 13548.7,11338.59 13531.71,11367.25 13216.48,11787.44 13234.37,11757.29 13249.52,11726.68 13261.87,11695.57 13271.49,11663.99 13278.36,11631.88 13282.47,11599.26 13283.84,11566.1 "/>
   <polygon class="fil27" points="13216.48,11787.44 13531.71,11367.25 13512.07,11395.47 13195.79,11817.14 "/>
   <polygon class="fil0" points="12128.09,10646.19 12497.74,10283.07 12480.43,10302.79 12466.23,10323.42 12455.22,10344.96 12447.32,10367.38 12442.58,10390.69 12441.02,10414.93 12442.13,10435.81 12445.47,10455.75 12451.08,10474.78 12458.88,10492.84 12468.93,10510 12481.16,10526.22 12495.64,10541.5 12512.29,10555.81 12521.96,10562.7 12533.39,10569.6 12546.57,10576.55 12561.53,10583.53 12578.18,10590.53 12596.64,10597.57 12616.85,10604.6 12638.82,10611.69 12662.53,10618.78 12687.99,10625.89 12715.24,10633.03 12744.27,10640.18 12775.05,10647.38 12807.58,10654.55 12841.9,10661.75 12877.96,10668.94 12914.22,10676.17 12949.01,10683.26 12982.37,10690.24 13014.23,10697.1 13044.69,10703.83 13073.66,10710.45 13101.19,10716.96 13127.29,10723.36 13151.93,10729.62 13175.1,10735.74 13196.84,10741.78 13217.15,10747.71 13235.96,10753.51 13253.38,10759.21 13269.29,10764.76 13283.77,10770.25 13322.35,10786.74 13358.35,10804.23 13391.75,10822.81 13422.59,10842.42 13450.79,10863.16 13476.42,10884.95 13499.4,10907.82 13519.74,10931.84 13537.59,10956.69 13553.03,10982.5 13566.11,11009.23 13576.78,11036.92 13585.05,11065.55 13590.97,11095.09 13594.54,11125.56 13595.72,11156.98 13594.41,11188.47 13590.5,11219.48 13583.97,11249.98 13574.84,11279.96 13563.12,11309.52 13548.7,11338.59 13531.71,11367.25 13512.07,11395.47 13195.79,11817.14 13216.48,11787.44 13234.37,11757.29 13249.52,11726.68 13261.87,11695.57 13271.49,11663.99 13278.36,11631.88 13282.47,11599.26 13283.84,11566.1 13282.6,11533.04 13278.87,11500.96 13272.63,11469.85 13263.91,11439.73 13252.68,11410.58 13238.92,11382.45 13222.66,11355.28 13203.88,11329.11 13182.46,11303.84 13158.27,11279.77 13131.3,11256.82 13101.61,11235 13069.14,11214.35 13034,11194.79 12996.09,11176.37 12955.5,11159.02 12940.25,11153.25 12923.48,11147.41 12905.18,11141.4 12885.35,11135.3 12863.99,11129.07 12841.1,11122.7 12816.72,11116.24 12790.78,11109.65 12763.31,11102.92 12734.31,11096.08 12703.81,11089.1 12671.76,11082.01 12638.21,11074.79 12603.1,11067.45 12566.5,11059.98 12528.33,11052.39 12490.36,11044.81 12454.23,11037.22 12419.98,11029.67 12387.61,11022.11 12357.05,11014.58 12328.37,11007.08 12301.54,10999.58 12276.58,10992.1 12253.47,10984.66 12232.18,10977.24 12212.76,10969.85 12195.22,10962.48 12179.5,10955.12 12165.62,10947.81 12153.59,10940.56 12143.4,10933.3 12125.86,10918.22 12110.65,10902.14 12097.75,10885.06 12087.19,10867.03 12078.97,10848 12073.08,10827.97 12069.55,10806.98 12068.37,10785 12070.03,10759.49 12075.03,10734.94 12083.33,10711.33 12094.92,10688.66 12109.85,10666.96 "/>
   <polygon class="fil28" points="11952.41,10510.58 12330.85,10154.24 12356.16,10132.04 12383.75,10111.38 12413.61,10092.32 12445.76,10074.81 12480.2,10058.87 12516.97,10044.5 12536,10037.93 12555.29,10031.76 12574.84,10026.02 12209.23,10375.6 12188.66,10381.64 12168.35,10388.12 12148.33,10395.04 12109.63,10410.16 12073.37,10426.95 12039.53,10445.38 12008.09,10465.46 11979.06,10487.19 "/>
   <polygon class="fil29" points="12209.23,10375.6 12574.84,10026.02 12594.67,10020.7 12614.75,10015.84 12635.12,10011.37 12655.75,10007.35 12676.6,10003.73 12697.77,10000.53 12719.19,9997.78 12740.9,9995.46 12762.83,9993.53 12785.05,9992.04 12807.52,9990.96 12830.25,9990.33 12853.23,9990.14 12502.29,10337.81 12478.1,10338.04 12454.16,10338.7 12430.51,10339.83 12407.12,10341.4 12384.04,10343.41 12361.19,10345.87 12338.65,10348.76 12316.37,10352.13 12294.41,10355.93 12272.7,10360.18 12251.24,10364.87 12230.11,10370 "/>
   <polygon class="fil30" points="12502.29,10337.81 12853.23,9990.14 12878.5,9990.33 12903.36,9991.02 12927.9,9992.12 12952.03,9993.67 12975.81,9995.65 12999.21,9998.11 13022.22,10001 13044.85,10004.34 13067.16,10008.09 13089.03,10012.31 13110.58,10016.97 13131.72,10022.13 12795.42,10371.49 12773.17,10366.08 12750.51,10361.17 12727.47,10356.73 12704.01,10352.76 12680.16,10349.26 12655.94,10346.2 12631.3,10343.63 12606.28,10341.54 12580.88,10339.91 12555.07,10338.75 12528.87,10338.04 "/>
   <polygon class="fil31" points="12795.42,10371.49 13131.72,10022.13 13152.47,10027.67 13172.88,10033.71 13192.9,10040.17 13212.51,10047.09 13250.29,10062.07 13285.81,10078.78 13319.08,10097.15 13350.14,10117.23 13378.95,10139.04 13055.67,10494.55 13025.34,10471.61 12992.65,10450.48 12957.63,10431.12 12920.23,10413.55 12880.48,10397.77 12859.82,10390.49 12838.75,10383.68 12817.29,10377.34 "/>
   <polygon class="fil32" points="13055.67,10494.55 13378.95,10139.04 13405.5,10162.49 13429.85,10187.67 13451.91,10214.53 13471.67,10242.61 13488.96,10271.59 13503.85,10301.49 13516.3,10332.35 13200.25,10698.07 13187.14,10665.61 13171.47,10634.11 13153.27,10603.61 13132.48,10574.07 13109.25,10545.77 13083.62,10519.27 "/>
   <polygon class="fil33" points="13200.25,10698.07 13516.3,10332.35 13526.29,10364.1 13533.93,10396.78 13539.12,10430.37 13541.96,10464.85 13227.24,10837.54 13224.28,10801.25 13218.81,10765.89 13210.79,10731.5 "/>
   <polygon class="fil0" points="11952.41,10510.58 12330.85,10154.24 12356.16,10132.04 12383.75,10111.38 12413.61,10092.32 12445.76,10074.81 12480.2,10058.87 12516.97,10044.5 12536,10037.93 12555.29,10031.76 12574.84,10026.02 12594.67,10020.7 12614.75,10015.84 12635.12,10011.37 12655.75,10007.35 12676.6,10003.73 12697.77,10000.53 12719.19,9997.78 12740.9,9995.46 12762.83,9993.53 12785.05,9992.04 12807.52,9990.96 12830.25,9990.33 12853.23,9990.14 12878.5,9990.33 12903.36,9991.02 12927.9,9992.12 12952.03,9993.67 12975.81,9995.65 12999.21,9998.11 13022.22,10001 13044.85,10004.34 13067.16,10008.09 13089.03,10012.31 13110.58,10016.97 13131.72,10022.13 13152.47,10027.67 13172.88,10033.71 13192.9,10040.17 13212.51,10047.09 13250.29,10062.07 13285.81,10078.78 13319.08,10097.15 13350.14,10117.23 13378.95,10139.04 13405.5,10162.49 13429.85,10187.67 13451.91,10214.53 13471.67,10242.61 13488.96,10271.59 13503.85,10301.49 13516.3,10332.35 13526.29,10364.1 13533.93,10396.78 13539.12,10430.37 13541.96,10464.85 13227.24,10837.54 13224.28,10801.25 13218.81,10765.89 13210.79,10731.5 13200.25,10698.07 13187.14,10665.61 13171.47,10634.11 13153.27,10603.61 13132.48,10574.07 13109.25,10545.77 13083.62,10519.27 13055.67,10494.55 13025.34,10471.61 12992.65,10450.48 12957.63,10431.12 12920.23,10413.55 12880.48,10397.77 12859.82,10390.49 12838.75,10383.68 12817.29,10377.34 12795.42,10371.49 12773.17,10366.08 12750.51,10361.17 12727.47,10356.73 12704.01,10352.76 12680.16,10349.26 12655.94,10346.2 12631.3,10343.63 12606.28,10341.54 12580.88,10339.91 12555.07,10338.75 12528.87,10338.04 12502.29,10337.81 12478.1,10338.04 12454.16,10338.7 12430.51,10339.83 12407.12,10341.4 12384.04,10343.41 12361.19,10345.87 12338.65,10348.76 12316.37,10352.13 12294.41,10355.93 12272.7,10360.18 12251.24,10364.87 12230.11,10370 12209.23,10375.6 12188.66,10381.64 12168.35,10388.12 12148.33,10395.04 12109.63,10410.16 12073.37,10426.95 12039.53,10445.38 12008.09,10465.46 11979.06,10487.19 "/>
   <polygon class="fil34" points="14378.03,10561.99 14635.19,10203.06 14635.19,11605.1 14378.03,12037.81 "/>
   <polygon class="fil0" points="14378.03,10561.99 14635.19,10203.06 14635.19,11605.1 14378.03,12037.81 "/>
   <polygon class="fil35" points="15014.07,10365.84 15239.44,10016.75 15239.44,10203.06 15014.07,10561.99 "/>
   <polygon class="fil0" points="15014.07,10365.84 15239.44,10016.75 15239.44,10203.06 15014.07,10561.99 "/>
   <polygon class="fil36" points="13485.96,10365.84 13787.72,10016.75 15239.44,10016.75 15014.07,10365.84 "/>
   <polygon class="fil0" points="13485.96,10365.84 13787.72,10016.75 15239.44,10016.75 15014.07,10365.84 "/>
   <polygon class="fil37" points="15273.18,10737.59 15485.58,10369.89 15507.61,10335.94 15531.58,10303.28 15557.46,10272.01 15585.22,10242.06 15614.91,10213.45 15646.11,10186.37 15442.17,10544.42 15409.32,10572.91 15378.06,10603.03 15348.84,10634.55 15321.59,10667.48 15296.38,10701.85 "/>
   <polygon class="fil38" points="15442.17,10544.42 15646.11,10186.37 15678.42,10161.05 15711.84,10137.53 15746.38,10115.71 15782.03,10095.63 15818.79,10077.32 15856.64,10060.74 15895.63,10045.9 15704.8,10396.53 15663.77,10412.14 15623.92,10429.6 15585.22,10448.88 15547.69,10470.01 15511.34,10492.98 15476.16,10517.78 "/>
   <polygon class="fil39" points="15704.8,10396.53 15895.63,10045.9 15935.74,10032.83 15976.96,10021.52 16019.26,10011.93 16062.74,10004.06 16107.31,9997.97 16152.98,9993.61 15975.72,10341.48 15927.62,10346.06 15880.7,10352.49 15834.96,10360.76 15790.43,10370.86 15747.01,10382.77 "/>
   <polygon class="fil40" points="15975.72,10341.48 16152.98,9993.61 16199.81,9990.99 16247.74,9990.14 16279.32,9990.55 16310.45,9991.79 16341.23,9993.83 16371.6,9996.7 16401.55,10000.4 16431.15,10004.92 16268.53,10353.4 16237.37,10348.63 16205.82,10344.74 16173.86,10341.7 16141.46,10339.55 16108.68,10338.26 16075.44,10337.81 16024.99,10338.72 "/>
   <polygon class="fil41" points="16268.53,10353.4 16431.15,10004.92 16460.34,10010.27 16489.15,10016.45 16517.58,10023.4 16545.55,10031.2 16573.22,10039.84 16600.46,10049.27 16627.3,10059.5 16653.78,10070.56 16679.88,10082.45 16705.6,10095.14 16557.4,10448.36 16530.34,10434.98 16502.87,10422.49 16474.99,10410.85 16446.72,10400.06 16418.04,10390.13 16388.95,10381.06 16359.47,10372.84 16329.55,10365.51 16299.25,10359.02 "/>
   <polygon class="fil42" points="16557.4,10448.36 16705.6,10095.14 16730.65,10108.57 16754.97,10122.66 16778.53,10137.39 16801.35,10152.72 16823.41,10168.75 16844.73,10185.43 16865.26,10202.75 16885.06,10220.74 16904.1,10239.35 16922.4,10258.63 16785.62,10620.49 16766.37,10600.19 16746.31,10580.58 16725.46,10561.66 16703.85,10543.43 16681.41,10525.86 16658.2,10509.01 16634.17,10492.82 16609.38,10477.32 16583.78,10462.48 "/>
   <polygon class="fil43" points="16785.62,10620.49 16922.4,10258.63 16939.94,10278.54 16956.72,10299.15 16972.73,10320.36 16988,10342.25 17002.52,10364.76 17016.24,10387.96 17029.19,10411.56 17041.32,10435.61 17052.59,10460.02 17063.06,10484.87 16933.67,10858.61 16922.66,10832.47 16910.78,10806.76 16898.02,10781.47 16884.4,10756.59 16869.94,10732.19 16854.67,10708.49 16838.59,10685.46 16821.72,10663.12 16804.09,10641.45 "/>
   <polygon class="fil44" points="16933.67,10858.61 17063.06,10484.87 17072.68,10510.08 17081.46,10535.7 17089.39,10561.71 17096.52,10588.13 17102.82,10614.89 17108.26,10642.11 17112.85,10669.69 17116.63,10697.68 17119.56,10726.04 16993.16,11112.49 16990.07,11082.62 16986.1,11053.17 16981.26,11024.12 16975.53,10995.5 16968.91,10967.31 16961.39,10939.51 16953.05,10912.12 16943.79,10885.15 "/>
   <polygon class="fil45" points="16993.16,11112.49 17119.56,10726.04 17121.66,10754.8 17122.94,10783.95 17123.35,10813.49 17122.9,10843.44 17121.6,10873.04 17119.4,10902.22 17116.32,10930.98 17112.34,10959.39 16985.55,11358.12 16989.72,11328.22 16992.97,11297.94 16995.29,11267.22 16996.66,11236.08 16997.14,11204.55 16996.69,11173.44 16995.36,11142.77 "/>
   <polygon class="fil46" points="16985.55,11358.12 17112.34,10959.39 17107.5,10987.39 17101.8,11014.99 17095.21,11042.19 17087.7,11069 17079.36,11095.39 16950.83,11501.26 16959.61,11473.49 16967.51,11445.28 16974.44,11416.65 16980.46,11387.58 "/>
   <polygon class="fil0" points="15273.18,10737.59 15485.58,10369.89 15507.61,10335.94 15531.58,10303.28 15557.46,10272.01 15585.22,10242.06 15614.91,10213.45 15646.11,10186.37 15678.42,10161.05 15711.84,10137.53 15746.38,10115.71 15782.03,10095.63 15818.79,10077.32 15856.64,10060.74 15895.63,10045.9 15935.74,10032.83 15976.96,10021.52 16019.26,10011.93 16062.74,10004.06 16107.31,9997.97 16152.98,9993.61 16199.81,9990.99 16247.74,9990.14 16279.32,9990.55 16310.45,9991.79 16341.23,9993.83 16371.6,9996.7 16401.55,10000.4 16431.15,10004.92 16460.34,10010.27 16489.15,10016.45 16517.58,10023.4 16545.55,10031.2 16573.22,10039.84 16600.46,10049.27 16627.3,10059.5 16653.78,10070.56 16679.88,10082.45 16705.6,10095.14 16730.65,10108.57 16754.97,10122.66 16778.53,10137.39 16801.35,10152.72 16823.41,10168.75 16844.73,10185.43 16865.26,10202.75 16885.06,10220.74 16904.1,10239.35 16922.4,10258.63 16939.94,10278.54 16956.72,10299.15 16972.73,10320.36 16988,10342.25 17002.52,10364.76 17016.24,10387.96 17029.19,10411.56 17041.32,10435.61 17052.59,10460.02 17063.06,10484.87 17072.68,10510.08 17081.46,10535.7 17089.39,10561.71 17096.52,10588.13 17102.82,10614.89 17108.26,10642.11 17112.85,10669.69 17116.63,10697.68 17119.56,10726.04 17121.66,10754.8 17122.94,10783.95 17123.35,10813.49 17122.9,10843.44 17121.6,10873.04 17119.4,10902.22 17116.32,10930.98 17112.34,10959.39 17107.5,10987.39 17101.8,11014.99 17095.21,11042.19 17087.7,11069 17079.36,11095.39 16950.83,11501.26 16959.61,11473.49 16967.51,11445.28 16974.44,11416.65 16980.46,11387.58 16985.55,11358.12 16989.72,11328.22 16992.97,11297.94 16995.29,11267.22 16996.66,11236.08 16997.14,11204.55 16996.69,11173.44 16995.36,11142.77 16993.16,11112.49 16990.07,11082.62 16986.1,11053.17 16981.26,11024.12 16975.53,10995.5 16968.91,10967.31 16961.39,10939.51 16953.05,10912.12 16943.79,10885.15 16933.67,10858.61 16922.66,10832.47 16910.78,10806.76 16898.02,10781.47 16884.4,10756.59 16869.94,10732.19 16854.67,10708.49 16838.59,10685.46 16821.72,10663.12 16804.09,10641.45 16785.62,10620.49 16766.37,10600.19 16746.31,10580.58 16725.46,10561.66 16703.85,10543.43 16681.41,10525.86 16658.2,10509.01 16634.17,10492.82 16609.38,10477.32 16583.78,10462.48 16557.4,10448.36 16530.34,10434.98 16502.87,10422.49 16474.99,10410.85 16446.72,10400.06 16418.04,10390.13 16388.95,10381.06 16359.47,10372.84 16329.55,10365.51 16299.25,10359.02 16268.53,10353.4 16237.37,10348.63 16205.82,10344.74 16173.86,10341.7 16141.46,10339.55 16108.68,10338.26 16075.44,10337.81 16024.99,10338.72 15975.72,10341.48 15927.62,10346.06 15880.7,10352.49 15834.96,10360.76 15790.43,10370.86 15747.01,10382.77 15704.8,10396.53 15663.77,10412.14 15623.92,10429.6 15585.22,10448.88 15547.69,10470.01 15511.34,10492.98 15476.16,10517.78 15442.17,10544.42 15409.32,10572.91 15378.06,10603.03 15348.84,10634.55 15321.59,10667.48 15296.38,10701.85 "/>
   <polygon class="fil47" points="15491.47,10841.51 15692.96,10468.63 15679.21,10498.11 15666.86,10529.22 15655.98,10561.96 15646.55,10596.24 15638.6,10632.15 15632.07,10669.66 15626.98,10708.74 15422.02,11094.29 15427.37,11053.14 15434.24,11013.64 15442.61,10975.86 15452.54,10939.76 15464,10905.31 15476.99,10872.57 "/>
   <polygon class="fil48" points="15422.02,11094.29 15626.98,10708.74 15623.35,10749.48 15621.18,10791.79 15620.45,10835.69 15621.15,10871.08 15623.22,10905.47 15626.72,10938.93 15421.73,11336.58 15418.07,11301.36 15415.87,11265.15 15415.14,11227.91 15415.91,11181.69 15418.2,11137.15 "/>
   <polygon class="fil49" points="15421.73,11336.58 15626.72,10938.93 15631.59,10971.42 15637.83,11002.97 15645.5,11033.58 15654.54,11063.23 15664.92,11091.92 15676.76,11119.63 15689.97,11146.41 15704.58,11172.26 15503.7,11582.18 15488.32,11554.99 15474.41,11526.8 15461.97,11497.62 15451.02,11467.42 15441.5,11436.2 15433.45,11403.99 15426.86,11370.78 "/>
   <polygon class="fil50" points="15503.7,11582.18 15704.58,11172.26 15720.53,11197.14 15737.94,11221.07 15756.72,11244.05 15776.84,11266.06 15798.42,11287.13 15820.99,11307.07 15844.32,11325.74 15868.32,11343.12 15893.05,11359.22 15702.1,11779 15676.06,11762.04 15650.79,11743.75 15626.25,11724.08 15602.47,11703.1 15579.77,11680.92 15558.57,11657.75 15538.81,11633.57 15520.5,11608.39 "/>
   <polygon class="fil51" points="15702.1,11779 15893.05,11359.22 15918.49,11374.04 15944.65,11387.55 15971.48,11399.8 15999.05,11410.77 16027.35,11420.43 16056.31,11428.81 16086.01,11435.9 16116.44,11441.72 16147.54,11446.21 15969.99,11870.56 15937.23,11865.82 15905.21,11859.7 15873.95,11852.25 15843.46,11843.43 15813.67,11833.25 15784.67,11821.69 15756.4,11808.81 15728.87,11794.58 "/>
   <polygon class="fil52" points="15969.99,11870.56 16147.54,11446.21 16179.37,11449.44 16211.9,11451.37 16245.17,11452.03 16279.03,11451.37 16312.11,11449.44 16344.45,11446.19 16376.02,11441.63 16406.8,11435.79 16436.85,11428.64 16274.51,11852.06 16242.87,11859.59 16210.47,11865.74 16177.24,11870.54 16143.21,11873.96 16108.39,11876 16072.74,11876.69 16037.72,11876 16003.47,11873.96 "/>
   <polygon class="fil53" points="16274.51,11852.06 16436.85,11428.64 16466.14,11420.18 16494.66,11410.41 16522.41,11399.38 16549.44,11387.03 16575.7,11373.37 16601.2,11358.45 16625.96,11342.21 16649.99,11324.64 16673.26,11305.8 16523.37,11722.76 16498.86,11742.59 16473.59,11761.07 16447.52,11778.17 16420.65,11793.89 16393.02,11808.26 16364.56,11821.28 16335.34,11832.89 16305.33,11843.15 "/>
   <polygon class="fil54" points="16523.37,11722.76 16673.26,11305.8 16695.8,11285.67 16717.19,11264.29 16737.18,11241.87 16755.83,11218.34 16773.08,11193.74 16788.93,11168.01 16803.45,11141.2 16816.53,11113.32 16828.28,11084.36 16686.53,11489.65 16674.18,11520.16 16660.4,11549.5 16645.12,11577.72 16628.44,11604.8 16610.27,11630.7 16590.66,11655.47 16569.59,11679.07 16547.08,11701.55 "/>
   <polygon class="fil0" points="15491.47,10841.51 15692.96,10468.63 15679.21,10498.11 15666.86,10529.22 15655.98,10561.96 15646.55,10596.24 15638.6,10632.15 15632.07,10669.66 15626.98,10708.74 15623.35,10749.48 15621.18,10791.79 15620.45,10835.69 15621.15,10871.08 15623.22,10905.47 15626.72,10938.93 15631.59,10971.42 15637.83,11002.97 15645.5,11033.58 15654.54,11063.23 15664.92,11091.92 15676.76,11119.63 15689.97,11146.41 15704.58,11172.26 15720.53,11197.14 15737.94,11221.07 15756.72,11244.05 15776.84,11266.06 15798.42,11287.13 15820.99,11307.07 15844.32,11325.74 15868.32,11343.12 15893.05,11359.22 15918.49,11374.04 15944.65,11387.55 15971.48,11399.8 15999.05,11410.77 16027.35,11420.43 16056.31,11428.81 16086.01,11435.9 16116.44,11441.72 16147.54,11446.21 16179.37,11449.44 16211.9,11451.37 16245.17,11452.03 16279.03,11451.37 16312.11,11449.44 16344.45,11446.19 16376.02,11441.63 16406.8,11435.79 16436.85,11428.64 16466.14,11420.18 16494.66,11410.41 16522.41,11399.38 16549.44,11387.03 16575.7,11373.37 16601.2,11358.45 16625.96,11342.21 16649.99,11324.64 16673.26,11305.8 16695.8,11285.67 16717.19,11264.29 16737.18,11241.87 16755.83,11218.34 16773.08,11193.74 16788.93,11168.01 16803.45,11141.2 16816.53,11113.32 16828.28,11084.36 16686.53,11489.65 16674.18,11520.16 16660.4,11549.5 16645.12,11577.72 16628.44,11604.8 16610.27,11630.7 16590.66,11655.47 16569.59,11679.07 16547.08,11701.55 16523.37,11722.76 16498.86,11742.59 16473.59,11761.07 16447.52,11778.17 16420.65,11793.89 16393.02,11808.26 16364.56,11821.28 16335.34,11832.89 16305.33,11843.15 16274.51,11852.06 16242.87,11859.59 16210.47,11865.74 16177.24,11870.54 16143.21,11873.96 16108.39,11876 16072.74,11876.69 16037.72,11876 16003.47,11873.96 15969.99,11870.56 15937.23,11865.82 15905.21,11859.7 15873.95,11852.25 15843.46,11843.43 15813.67,11833.25 15784.67,11821.69 15756.4,11808.81 15728.87,11794.58 15702.1,11779 15676.06,11762.04 15650.79,11743.75 15626.25,11724.08 15602.47,11703.1 15579.77,11680.92 15558.57,11657.75 15538.81,11633.57 15520.5,11608.39 15503.7,11582.18 15488.32,11554.99 15474.41,11526.8 15461.97,11497.62 15451.02,11467.42 15441.5,11436.2 15433.45,11403.99 15426.86,11370.78 15421.73,11336.58 15418.07,11301.36 15415.87,11265.15 15415.14,11227.91 15415.91,11181.69 15418.2,11137.15 15422.02,11094.29 15427.37,11053.14 15434.24,11013.64 15442.61,10975.86 15452.54,10939.76 15464,10905.31 15476.99,10872.57 "/>
   <polygon class="fil55" points="17586.9,10550.32 17683.64,10191.97 17683.64,10717.73 17586.9,11103.75 "/>
   <polygon class="fil0" points="17586.9,10550.32 17683.64,10191.97 17683.64,10717.73 17586.9,11103.75 "/>
   <polygon class="fil56" points="18329.39,11276.57 18388.98,10881.92 18412.44,10891.9 18434.34,10901.89 18454.84,10911.82 18473.84,10921.75 18491.41,10931.65 18507.49,10941.49 18522.13,10951.31 18535.34,10961.02 18561.73,10982.75 18587.76,11005.87 18613.39,11030.3 18565.61,11432.75 18538.62,11407.05 18511.21,11382.72 18483.45,11359.83 18469.54,11349.6 18454.14,11339.28 18437.2,11328.91 18418.71,11318.49 18398.72,11308.04 18377.14,11297.58 18354.06,11287.07 "/>
   <polygon class="fil57" points="18565.61,11432.75 18613.39,11030.3 18638.66,11056.09 18663.55,11083.2 18688.06,11111.66 18712.19,11141.42 18735.91,11172.51 18694.56,11582.46 18669.6,11549.72 18644.2,11518.39 18618.42,11488.44 18592.19,11459.89 "/>
   <polygon class="fil58" points="18694.56,11582.46 18735.91,11172.51 19052.97,11605.1 19028.3,12037.81 "/>
   <polygon class="fil0" points="18329.39,11276.57 18388.98,10881.92 18412.44,10891.9 18434.34,10901.89 18454.84,10911.82 18473.84,10921.75 18491.41,10931.65 18507.49,10941.49 18522.13,10951.31 18535.34,10961.02 18561.73,10982.75 18587.76,11005.87 18613.39,11030.3 18638.66,11056.09 18663.55,11083.2 18688.06,11111.66 18712.19,11141.42 18735.91,11172.51 19052.97,11605.1 19028.3,12037.81 18694.56,11582.46 18669.6,11549.72 18644.2,11518.39 18618.42,11488.44 18592.19,11459.89 18565.61,11432.75 18538.62,11407.05 18511.21,11382.72 18483.45,11359.83 18469.54,11349.6 18454.14,11339.28 18437.2,11328.91 18418.71,11318.49 18398.72,11308.04 18377.14,11297.58 18354.06,11287.07 "/>
   <polygon class="fil59" points="17586.9,11295.24 17683.64,10899.65 17683.64,11605.1 17586.9,12037.81 "/>
   <polygon class="fil0" points="17586.9,11295.24 17683.64,10899.65 17683.64,11605.1 17586.9,12037.81 "/>
   <polygon class="fil60" points="17586.9,11103.75 17683.64,10717.73 18204.23,10717.73 18134.91,11103.75 "/>
   <polygon class="fil61" points="18134.91,11103.75 18204.23,10717.73 18244.69,10717.26 18282.82,10715.89 18318.67,10713.51 18352.18,10710.26 18383.44,10706.07 18412.44,10700.88 18439.15,10694.81 18463.66,10687.78 18486.32,10679.87 18431.86,11063.89 18407.98,11072.22 18382.2,11079.62 18354.06,11086.01 18323.57,11091.45 18290.65,11095.86 18255.35,11099.31 18217.63,11101.79 18177.5,11103.25 "/>
   <polygon class="fil62" points="18431.86,11063.89 18486.32,10679.87 18507.58,10670.82 18527.41,10660.59 18545.87,10649.25 18562.87,10636.76 18578.44,10623.13 18592.6,10608.35 18605.34,10592.41 18616.73,10575.89 18626.6,10558.98 18635,10541.74 18641.81,10524.15 18647.16,10506.19 18650.92,10487.85 18605.11,10861.76 18601.13,10881.06 18595.53,10899.96 18588.34,10918.49 18579.52,10936.64 18569.11,10954.43 18557.11,10971.83 18543.71,10988.6 18528.81,11004.16 18512.42,11018.5 18494.53,11031.65 18475.11,11043.6 18454.23,11054.35 "/>
   <polygon class="fil63" points="18605.11,10861.76 18650.92,10487.85 18653.21,10469.15 18607.53,10842.07 "/>
   <polygon class="fil0" points="17586.9,11103.75 17683.64,10717.73 18204.23,10717.73 18244.69,10717.26 18282.82,10715.89 18318.67,10713.51 18352.18,10710.26 18383.44,10706.07 18412.44,10700.88 18439.15,10694.81 18463.66,10687.78 18486.32,10679.87 18507.58,10670.82 18527.41,10660.59 18545.87,10649.25 18562.87,10636.76 18578.44,10623.13 18592.6,10608.35 18605.34,10592.41 18616.73,10575.89 18626.6,10558.98 18635,10541.74 18641.81,10524.15 18647.16,10506.19 18650.92,10487.85 18653.21,10469.15 18607.53,10842.07 18605.11,10861.76 18601.13,10881.06 18595.53,10899.96 18588.34,10918.49 18579.52,10936.64 18569.11,10954.43 18557.11,10971.83 18543.71,10988.6 18528.81,11004.16 18512.42,11018.5 18494.53,11031.65 18475.11,11043.6 18454.23,11054.35 18431.86,11063.89 18407.98,11072.22 18382.2,11079.62 18354.06,11086.01 18323.57,11091.45 18290.65,11095.86 18255.35,11099.31 18217.63,11101.79 18177.5,11103.25 18134.91,11103.75 "/>
   <polygon class="fil64" points="17330.89,10365.84 17440.42,10016.75 18252.84,10016.75 18186.09,10365.84 "/>
   <polygon class="fil65" points="18186.09,10365.84 18252.84,10016.75 18283.05,10016.92 18312.3,10017.44 18340.63,10018.27 18368.07,10019.45 18394.58,10020.97 18420.17,10022.82 18444.81,10025 18468.56,10027.51 18491.38,10030.38 18513.28,10033.58 18534.26,10037.08 18482.31,10387.24 18460.22,10383.54 18437.17,10380.18 18413.14,10377.17 18388.15,10374.52 18362.21,10372.23 18335.28,10370.28 18307.37,10368.68 18278.5,10367.44 18248.67,10366.55 18217.86,10366 "/>
   <polygon class="fil66" points="18482.31,10387.24 18534.26,10037.08 18554.34,10040.94 18573.47,10045.13 18591.68,10049.63 18609,10054.48 18625.39,10059.64 18656.42,10071.36 18685.87,10085.1 18713.69,10100.87 18739.95,10118.72 18764.59,10138.57 18787.63,10160.5 18749.02,10517.17 18724.76,10494.08 18698.82,10473.18 18671.19,10454.4 18641.91,10437.77 18610.91,10423.31 18578.22,10410.99 18560.96,10405.55 18542.76,10400.45 18523.59,10395.71 18503.44,10391.29 "/>
   <polygon class="fil67" points="18749.02,10517.17 18787.63,10160.5 18809.08,10184.47 18828.92,10210.48 18846.74,10237.89 18862.21,10266 18875.26,10294.82 18885.96,10324.41 18894.23,10354.67 18900.15,10385.64 18867.46,10754.17 18861.22,10721.57 18852.5,10689.71 18841.27,10658.57 18827.52,10628.24 18811.25,10598.64 18792.47,10569.79 18771.59,10542.41 "/>
   <polygon class="fil68" points="18867.46,10754.17 18900.15,10385.64 18903.69,10417.33 18904.86,10449.71 18902.92,10491.16 18870.36,10865.23 18872.43,10821.6 18871.19,10787.51 "/>
   <polygon class="fil0" points="17330.89,10365.84 17440.42,10016.75 18252.84,10016.75 18283.05,10016.92 18312.3,10017.44 18340.63,10018.27 18368.07,10019.45 18394.58,10020.97 18420.17,10022.82 18444.81,10025 18468.56,10027.51 18491.38,10030.38 18513.28,10033.58 18534.26,10037.08 18554.34,10040.94 18573.47,10045.13 18591.68,10049.63 18609,10054.48 18625.39,10059.64 18656.42,10071.36 18685.87,10085.1 18713.69,10100.87 18739.95,10118.72 18764.59,10138.57 18787.63,10160.5 18809.08,10184.47 18828.92,10210.48 18846.74,10237.89 18862.21,10266 18875.26,10294.82 18885.96,10324.41 18894.23,10354.67 18900.15,10385.64 18903.69,10417.33 18904.86,10449.71 18902.92,10491.16 18870.36,10865.23 18872.43,10821.6 18871.19,10787.51 18867.46,10754.17 18861.22,10721.57 18852.5,10689.71 18841.27,10658.57 18827.52,10628.24 18811.25,10598.64 18792.47,10569.79 18771.59,10542.41 18749.02,10517.17 18724.76,10494.08 18698.82,10473.18 18671.19,10454.4 18641.91,10437.77 18610.91,10423.31 18578.22,10410.99 18560.96,10405.55 18542.76,10400.45 18523.59,10395.71 18503.44,10391.29 18482.31,10387.24 18460.22,10383.54 18437.17,10380.18 18413.14,10377.17 18388.15,10374.52 18362.21,10372.23 18335.28,10370.28 18307.37,10368.68 18278.5,10367.44 18248.67,10366.55 18217.86,10366 18186.09,10365.84 "/>
   <polygon class="fil69" points="19277.16,10365.84 19289.38,10016.75 20613.04,10016.75 20670.49,10365.84 "/>
   <polygon class="fil0" points="19277.16,10365.84 19289.38,10016.75 20613.04,10016.75 20670.49,10365.84 "/>
   <polygon class="fil70" points="19533.18,11075.73 19532.6,10691.12 20543.9,10691.12 20597.73,11075.73 "/>
   <polygon class="fil0" points="19533.18,11075.73 19532.6,10691.12 20543.9,10691.12 20597.73,11075.73 "/>
   <polygon class="fil71" points="19533.18,11841.66 19532.6,11418.77 20656.55,11418.77 20716.3,11841.66 "/>
   <polygon class="fil0" points="19533.18,11841.66 19532.6,11418.77 20656.55,11418.77 20716.3,11841.66 "/>
  </g>
  <path class="fil72" d="M6828.36 12037.81l740.23 -1671.97 280.75 0 785.59 1671.97 -290.62 0 -223.23 -506.73 -812.55 0 -209.32 506.73 -270.85 0zm555.17 -686.53l657.59 0 -201.23 -463.51c-60.64,-140.91 -106.45,-257.27 -138.34,-349.12 -26.48,108.97 -61.97,215.99 -106.44,321.87l-211.58 490.76zm1443.21 686.53l0 -1671.97 256.02 0 0 1475.82 948.66 0 0 196.15 -1204.68 0zm1552.78 0l0 -1671.97 256.02 0 0 1671.97 -256.02 0z"/>
  <path id="1" class="fil73" d="M11750.38 11500.74l239.85 -18.7c11.24,84.06 37.72,152.96 79.51,207.05 41.76,53.72 106.45,97.3 194.04,130.78 87.57,33.07 186.41,49.81 296,49.81 97.47,0 183.25,-12.46 257.83,-37.76 74.55,-25.29 129.81,-59.93 166.19,-103.89 36.38,-43.99 54.81,-91.87 54.81,-143.23 0,-52.15 -17.54,-97.69 -52.55,-137.01 -35.05,-38.92 -93.01,-71.6 -173.86,-98.47 -51.63,-17.12 -166.19,-44.35 -343.62,-81.33 -177.39,-36.96 -301.37,-71.6 -372.35,-104.31 -92.09,-42.03 -160.34,-94.19 -205.28,-156.05 -45.36,-61.89 -67.8,-131.56 -67.8,-208.23 0,-84.84 27.85,-163.86 83.08,-237 55.26,-73.56 135.66,-129.21 242.1,-167.36 106,-38.14 224.16,-57.23 353.96,-57.23 142.83,0 269.04,19.86 378.19,59.96 109.14,39.69 193.15,98.47 252,176.3 58.83,77.44 90.27,165.4 94.76,263.47l-245.22 16.36c-13.05,-105.47 -57.52,-185.26 -133.44,-238.96 -75.88,-54.11 -188.18,-80.97 -336.42,-80.97 -154.51,0 -267.25,24.51 -337.76,73.55 -70.53,49.04 -106.03,108.2 -106.03,177.48 0,59.93 25.18,109.36 75.03,148.3 49.4,38.53 177.42,78.61 384.93,119.09 207.54,40.85 349.92,76.26 427.17,106.63 111.86,44.76 194.93,101.19 248.38,170.09 53.47,68.48 79.96,147.5 79.96,236.99 0,89.14 -29.19,172.44 -88.05,251.04 -58.82,78.6 -142.82,139.72 -252.86,183.3 -110.04,43.6 -233.58,65.39 -371.47,65.39 -174.27,0 -320.25,-22.17 -437.93,-66.16 -118.15,-43.97 -210.24,-110.13 -277.15,-198.88 -67.39,-88.34 -102.4,-188.38 -106,-300.05zm2371.63 537.07l0 -1475.82 -636.05 0 0 -196.15 1528.11 0 0 196.15 -636.04 0 0 1475.82 -256.02 0zm1029.03 -813.78c0,-277.13 86.23,-494.3 258.28,-651.12 172.04,-156.85 393.91,-235.1 666.12,-235.1 178.32,0 338.68,36.99 481.96,110.55 142.82,73.55 251.97,176.29 327,308.23 75.02,131.56 112.74,280.99 112.74,447.96 0,169.29 -39.53,321.09 -118.57,454.58 -79.07,133.88 -190.92,235.07 -335.53,303.58 -145.09,68.87 -301.41,103.12 -468.97,103.12 -181.91,0 -344.06,-38.14 -487.33,-114.04 -142.85,-75.88 -251.52,-179.41 -325.21,-310.94 -73.66,-131.17 -110.49,-270.12 -110.49,-416.82zm264.1 3.88c0,201.2 62.45,359.6 187.33,475.19 124.87,115.59 281.61,173.59 470.27,173.59 192.26,0 349.92,-58.39 474.34,-175.14 123.95,-116.75 185.96,-282.56 185.96,-497.38 0,-135.84 -26.52,-254.54 -79.51,-355.73 -53,-101.2 -130.7,-179.8 -232.69,-235.46 -102.4,-55.65 -216.93,-83.68 -344.06,-83.68 -180.58,0 -335.98,53.7 -466.23,161.13 -130.25,107.42 -195.41,286.45 -195.41,537.48zm1915.75 809.9l0 -1671.97 855.2 0c172.05,0 302.74,15.19 392.13,45.15 89.41,29.97 160.81,82.9 214.25,158.8 53.48,75.88 79.96,159.94 79.96,251.81 0,118.71 -44.47,218.71 -132.96,300.05 -88.49,81.36 -225.01,132.71 -410.08,154.92 67.83,28.02 119.02,56.04 154.06,83.26 74.55,59.16 145.09,133.49 211.11,222.63l333.74 455.35 -318.91 0 -255.12 -347.92c-74.14,-100.81 -135.67,-177.48 -183.73,-230.8 -48.51,-53.34 -91.61,-90.29 -129.81,-111.7 -37.72,-21.01 -76.81,-35.8 -116.34,-44.37 -28.74,-5.05 -75.89,-7.78 -141.94,-7.78l-295.55 0 0 742.57 -256.01 0zm256.01 -934.06l548.01 0c116.78,0 207.5,-10.51 273.07,-31.53 65.61,-20.63 115.45,-54.08 149.13,-100.39 34.16,-45.95 51.22,-95.76 51.22,-149.84 0,-79.02 -32.79,-144.41 -98.84,-195.38 -66.02,-51 -170.23,-76.29 -312.61,-76.29l-609.98 0 0 553.43zm1690.26 934.06l0 -1671.97 1393.33 0 0 196.15 -1137.31 0 0 513.74 1064.55 0 0 196.15 -1064.55 0 0 569.78 1183.12 0 0 196.15 -1439.14 0z"/>
  <g id="_1718080477264">
   <polygon class="fil74 str1" points="16848.44,8096.18 12777.29,8157.57 13791.47,6238.15 13452.51,5695.51 11866.66,8579.53 11590.46,8579.53 13437.07,5331.97 14658.5,7337.18 15468.11,7323.9 13567.36,4286.33 13661.78,4132.24 15764.03,7458.94 13278.04,7493.01 13019.75,7975.34 16748.12,7938 "/>
   <path class="fil75" d="M14279.04 4019.82l1210.73 1908.81 1258.37 1983.86 -3728.36 37.35 258.31 -482.34 2485.97 -34.1 -2148.65 -3400.11 663.63 -13.47zm2569.42 4050.83l-144.29 527.02 -4863.7 4.04 1612.04 -2931.68 338.99 542.61 -1014.18 1919.42 4071.14 -61.41zm-5285.08 531.06l-572.15 -428.84 1421.99 -2244.24 1106.34 -1744.22 1948.57 3113.98 -809.6 13.28 -1221.43 -2005.2 -1873.72 3295.24z"/>
  </g>
  <rect class="fil76 str2" x="28639.7" y="1851.23" width="3037.42" height="2222.5"/>
  <path class="fil77" d="M30218.12 2043.86l449.31 793.27 466.99 824.46 -1383.62 15.52 95.86 -200.45 922.56 -14.17 -797.38 -1413.03 246.28 -5.6zm953.53 1683.46l-53.55 219.02 -1804.95 1.68 598.24 -1218.36 125.8 225.5 -376.37 797.68 1510.83 -25.52zm-1961.33 220.7l-212.33 -178.22 527.71 -932.67 410.57 -724.87 723.13 1294.12 -300.45 5.52 -453.28 -833.33 -695.35 1369.45z"/>
 </g>
</svg>
